<?xml version="1.0" encoding="iso-8859-1"?>
<!-- Generator: Adobe Illustrator 21.0.0, SVG Export Plug-In . SVG Version: 6.00 Build 0)  -->
<svg version="1.1" id="Layer_1" xmlns="http://www.w3.org/2000/svg" xmlns:xlink="http://www.w3.org/1999/xlink" x="0px" y="0px"
	 viewBox="0 0 24 24" enable-background="new 0 0 24 24" xml:space="preserve">
<g>
	<circle fill="#F8F8F8" cx="20" cy="3" r="1.5"/>
	<path fill="#D51C29" d="M17.609375,5.5625C14.942708,3.1666718,18.5,3,18.5,3l0.270834-0.8333282
		C18.770834,2.1666718,16.125,0.5,12.5,0.5S5.9358234,4.4149933,5.5399899,5.5399933L17.609375,5.5625z"/>
	<path opacity="0.2" fill="#FFFFFF" enable-background="new    " d="M8.269165,5.539978
		c0.3563232-1.0127563,2.776062-4.2770996,5.8994751-4.9204102C13.6414185,0.5466919,13.0852661,0.5,12.5,0.5
		c-3.625,0-6.5641479,3.914978-6.960022,5.039978L17.609375,5.5625c-0.0020142-0.0018311-0.0031738-0.0032959-0.005188-0.005127
		L8.269165,5.539978z"/>
	<path fill="#F8F8F8" d="M5.9415183,5.5h11.1169624c0.8608608,0,1.6251392,0.5508575,1.8973675,1.3675385l0.1054096,0.3162384
		C19.2771015,7.8312988,18.7951317,8.5,18.1125736,8.5H4.8874259c-0.6825576,0-1.1645269-0.6687012-0.9486833-1.3162231
		l0.1054091-0.3162384C4.31638,6.0508575,5.0806575,5.5,5.9415183,5.5z"/>
	<path fill="#F8F8F8" d="M20.5,12c0-2.015625-2.5-3.5-2.5-3.5h-0.5c0,0,1,1.875,1,3.5s-1.0625038,2.5-2.5,2.5
		c-1.4375038,0-2.25-1-4.5-1s-3.0625038,1-4.5,1c-1.4375038,0-2.5-0.875-2.5-2.5s1-3.5,1-3.5H5c0,0-2.5,1.484375-2.5,3.5
		s1,2.5,1,2.5s-0.9921875,2.0078125,0,3s2,1,2,1s1.984375,5.875,6,4c0,0.765625-1,1-1,1c4.515625,0,7-5,7-5s1.0078125-0.0078125,2-1
		s0-3,0-3S20.5,14.015625,20.5,12z"/>
	<path fill="#FBBE9D" d="M17.5,8.5c0,0,1,1.875,1,3.5s-1.0625,2.5-2.5,2.5s-2.25-1-4.5-1s-3.0625038,1-4.5,1
		c-1.4375038,0-2.5-0.875-2.5-2.5s1-3.5,1-3.5H17.5z"/>
	<path opacity="0.1" enable-background="new    " d="M18.5,3l0.1622925-0.4994507C16.7296143,2.5078125,14.5,2.6387939,14.5,5
		c0,0.1958618,0.0597534,0.3792725,0.1445923,0.5569458L17.609375,5.5625C14.942688,3.166626,18.5,3,18.5,3z"/>
	<path opacity="0.2" fill="#FFFFFF" enable-background="new    " d="M6.5,12c0-1.625,1-3.5,1-3.5h-2c0,0-1,1.875-1,3.5
		s1.0624962,2.5,2.5,2.5c0.3647461,0,0.689209-0.0649414,1.0071411-0.1610107C7.0996094,14.0176392,6.5,13.2205811,6.5,12z"/>
	<path opacity="0.1" enable-background="new    " d="M16.5,12c0-1.625-1-3.5-1-3.5h2c0,0,1,1.875,1,3.5s-1.0625,2.5-2.5,2.5
		c-0.3647461,0-0.689209-0.0649414-1.0071411-0.1610107C15.9003906,14.0176392,16.5,13.2205811,16.5,12z"/>
	<g>
		<path fill="#303C42" d="M18.0871582,3.552002C18.3284302,4.385376,19.0897217,5,20,5c1.1030273,0,2-0.8969727,2-2
			s-0.8969727-2-2-2c-0.5184937,0-0.9869995,0.203186-1.3426514,0.527771C17.7819824,1.0604858,15.4702148,0,12.5,0
			C8.8510742,0,5.8881226,3.6182861,5.1758423,5.1205444C4.4319458,5.3594971,3.8266602,5.9387817,3.5693359,6.7099609
			L3.4648438,7.0253906C3.3100586,7.4882812,3.3852539,7.980957,3.6704102,8.3769531
			c0.0765381,0.1062622,0.1660767,0.197998,0.2632446,0.2788086C3.1231689,9.322876,2,10.5133667,2,12
			c0,1.5078125,0.5107422,2.2875977,0.8901367,2.6591797c-0.2685547,0.7119141-0.6870117,2.2509766,0.2563477,3.1943359
			c0.762207,0.762207,1.5478516,1.0175781,1.9907227,1.1035156c0.3383789,0.8535156,1.449707,3.2797852,3.4160156,4.1206055
			c0.4750977,0.2036133,0.9516602,0.3061523,1.4638672,0.2919922c-0.0161133,0.0595703-0.0214844,0.1230469-0.0136719,0.1879883
			C10.0322266,23.8095703,10.2460938,24,10.5,24c4.2338867,0,6.7348633-3.9873047,7.3183594-5.0351562
			c0.4331055-0.0766602,1.2470703-0.3232422,2.0351562-1.1113281c0.9433594-0.9433594,0.5249023-2.4824219,0.2563477-3.1943359
			C20.4892578,14.2875977,21,13.5078125,21,12c0-1.4866333-1.1231689-2.677124-1.9336548-3.3442383
			c0.097168-0.0808105,0.1867065-0.1725464,0.2632446-0.2788086c0.2851562-0.3959961,0.3603516-0.8886719,0.2060547-1.3510742
			l-0.1054688-0.3164062c-0.2474365-0.7422485-0.819458-1.3034668-1.5255737-1.5576782
			c-0.6551514-0.5995483-0.8330078-0.9977417-0.7766724-1.1552124C17.1950073,3.8076172,17.62677,3.6365356,18.0871582,3.552002z
			 M20,2c0.5512695,0,1,0.4487305,1,1s-0.4487305,1-1,1s-1-0.4487305-1-1S19.4487305,2,20,2z M17.1885376,9
			C17.4450073,9.5435791,18,10.8512573,18,12c0,1.2524414-0.7475586,2-2,2c-0.5458984,0-0.9882812-0.1694336-1.5478516-0.3837891
			C13.7353516,13.3417969,12.8427734,13,11.5,13s-2.2353516,0.3417969-2.9521484,0.6162109C7.9882812,13.8305664,7.5458984,14,7,14
			c-1.2524414,0-2-0.7475586-2-2c0-1.1449585,0.555542-2.4552612,0.8118896-3H17.1885376z M20,12
			c0,1.6289062-0.7006836,2.0395508-0.7177734,2.0498047c-0.1201172,0.0581055-0.2114258,0.1616211-0.2548828,0.2875977
			c-0.0429688,0.1254883-0.034668,0.2641602,0.0239258,0.3833008c0.2304688,0.4707031,0.6972656,1.8237305,0.0952148,2.4257812
			C18.3261719,17.9663086,17.5244141,17.9990234,17.4960938,18c-0.1884766,0.0014648-0.3598633,0.1088867-0.4438477,0.2773438
			c-0.0205078,0.0415039-1.8413086,3.6318359-5.0854492,4.5239258C11.9882812,22.7070312,12,22.6064453,12,22.5
			c0-0.1708984-0.0874023-0.3300781-0.2314453-0.421875c-0.144043-0.0908203-0.3251953-0.1025391-0.4799805-0.03125
			c-0.8354492,0.390625-1.601078,0.4287109-2.3398438,0.1123047c-1.9394531-0.8271484-2.9648438-3.7895508-2.9750977-3.8198242
			C5.90625,18.1420898,5.7177734,18.0063477,5.5092773,18c-0.0336914-0.0009766-0.8354492-0.0336914-1.6557617-0.8535156
			c-0.6020508-0.6020508-0.1352539-1.9550781,0.0952148-2.4257812c0.1166992-0.2382812,0.0131836-0.534668-0.2182617-0.6645508
			C3.7006836,14.0395508,3,13.6289062,3,12c0-1.0669556,0.8761597-1.9963989,1.536499-2.5454712
			C4.2692261,10.1703491,4,11.1086426,4,12c0,1.8222656,1.1777344,3,3,3c0.730957,0,1.3012695-0.2182617,1.9052734-0.449707
			C9.6118164,14.2797852,10.3417969,14,11.5,14s1.8881836,0.2797852,2.5947266,0.550293C14.6987305,14.7817383,15.269043,15,16,15
			c1.8222656,0,3-1.1777344,3-3c0-0.8913574-0.2692261-1.8296509-0.536499-2.5454712C19.1238403,10.0036011,20,10.9330444,20,12z
			 M18.4814453,7.0253906l0.1054688,0.3164062c0.0512695,0.1542969,0.0263672,0.3183594-0.0688477,0.4506836
			C18.4233398,7.9243164,18.2753906,8,18.112793,8H4.887207C4.7246094,8,4.5766602,7.9243164,4.4819336,7.7924805
			C4.3867188,7.6601562,4.3618164,7.4960938,4.4135742,7.3413086l0.1044922-0.3154297C4.7231445,6.4121094,5.2949219,6,5.9414062,6
			h11.1171875C17.7050781,6,18.2768555,6.4121094,18.4814453,7.0253906z M16.1860352,3.6601562
			C16.0172119,4.1332397,16.1843872,4.6029053,16.4399414,5H6.395813C7.3299561,3.5716553,9.7338867,1,12.5,1
			c2.6488037,0,4.7699585,0.9384766,5.6105957,1.3726807c-0.0187378,0.0560303-0.0390015,0.1112671-0.0527344,0.1694336
			C17.4561768,2.6281128,16.4623413,2.885376,16.1860352,3.6601562z"/>
		<path fill="#303C42" d="M13.0917969,15.2109375C13.0864258,15.21875,12.5048828,16,11.5,16
			c-1.0009766,0-1.565918-0.753418-1.59375-0.7915039c-0.1606445-0.2231445-0.4707031-0.2758789-0.6953125-0.1166992
			c-0.2250977,0.159668-0.2783203,0.472168-0.1191406,0.6972656C9.1269531,15.8383789,9.9677734,17,11.5,17
			s2.3730469-1.1616211,2.4082031-1.2109375c0.1591797-0.2250977,0.105957-0.5375977-0.1191406-0.6972656
			C13.5639648,14.9331055,13.2514648,14.9853516,13.0917969,15.2109375z"/>
		<path fill="#303C42" d="M9,12c0.5512695,0,1-0.4487305,1-1s-0.4487305-1-1-1s-1,0.4487305-1,1S8.4487305,12,9,12z"/>
		<path fill="#303C42" d="M14,12c0.5512695,0,1-0.4487305,1-1s-0.4487305-1-1-1s-1,0.4487305-1,1S13.4487305,12,14,12z"/>
	</g>
	
		<linearGradient id="SVGID_1_" gradientUnits="userSpaceOnUse" x1="3.452616" y1="17.0786915" x2="21.2144489" y2="8.7962074" gradientTransform="matrix(1 0 0 -1 0 24)">
		<stop  offset="0" style="stop-color:#FFFFFF;stop-opacity:0.2"/>
		<stop  offset="1" style="stop-color:#FFFFFF;stop-opacity:0"/>
	</linearGradient>
	<path fill="url(#SVGID_1_)" d="M18.0871582,3.552002C18.3284302,4.385376,19.0897217,5,20,5c1.1030273,0,2-0.8969727,2-2
		s-0.8969727-2-2-2c-0.5184937,0-0.9869995,0.203186-1.3426514,0.527771C17.7819824,1.0604858,15.4702148,0,12.5,0
		C8.8510742,0,5.8881226,3.6182861,5.1758423,5.1205444C4.4319458,5.3594971,3.8266602,5.9387817,3.5693359,6.7099609
		L3.4648438,7.0253906C3.3100586,7.4882812,3.3852539,7.980957,3.6704102,8.3769531
		c0.0765381,0.1062622,0.1660767,0.197998,0.2632446,0.2788086C3.1231689,9.322876,2,10.5133667,2,12
		c0,1.5078125,0.5107422,2.2875977,0.8901367,2.6591797c-0.2685547,0.7119141-0.6870117,2.2509766,0.2563477,3.1943359
		c0.762207,0.762207,1.5478516,1.0175781,1.9907227,1.1035156c0.3383789,0.8535156,1.449707,3.2797852,3.4160156,4.1206055
		c0.4750977,0.2036133,0.9516602,0.3061523,1.4638672,0.2919922c-0.0161133,0.0595703-0.0214844,0.1230469-0.0136719,0.1879883
		C10.0322266,23.8095703,10.2460938,24,10.5,24c4.2338867,0,6.7348633-3.9873047,7.3183594-5.0351562
		c0.4331055-0.0766602,1.2470703-0.3232422,2.0351562-1.1113281c0.9433594-0.9433594,0.5249023-2.4824219,0.2563477-3.1943359
		C20.4892578,14.2875977,21,13.5078125,21,12c0-1.4866333-1.1231689-2.677124-1.9336548-3.3442383
		c0.097168-0.0808105,0.1867065-0.1725464,0.2632446-0.2788086c0.2851562-0.3959961,0.3603516-0.8886719,0.2060547-1.3510742
		l-0.1054688-0.3164062c-0.2474365-0.7422485-0.819458-1.3034668-1.5255737-1.5576782
		c-0.6551514-0.5995483-0.8330078-0.9977417-0.7766724-1.1552124C17.1950073,3.8076172,17.62677,3.6365356,18.0871582,3.552002z"/>
</g>
</svg>
